HIERARCHY
ROOT Hips
{
	OFFSET -3.958830 18.904000 13.208200
	CHANNELS 6 Xposition Yposition Zposition Zrotation Yrotation Xrotation 
	JOINT LHipJoint
	{
		OFFSET 0.000000 0.000000 0.000000
		CHANNELS 3 Zrotation Yrotation Xrotation
		JOINT LeftUpLeg
		{
			OFFSET 1.800000 -1.400000 0.085000
			CHANNELS 3 Zrotation Yrotation Xrotation
			JOINT LeftLeg
			{
				OFFSET 2.215000 -6.000000 0.000000
				CHANNELS 3 Zrotation Yrotation Xrotation
				JOINT LeftFoot
				{
					OFFSET 2.500000 -6.900000 0.000000
					CHANNELS 3 Zrotation Yrotation Xrotation
					JOINT LeftToeBase
					{
						OFFSET 0.200000 -0.500000 1.950000
						CHANNELS 3 Zrotation Yrotation Xrotation
						End Site
						{
							OFFSET 0.000000 0.000000 0.000000
						}
					}
				}
			}
		}
	}
	JOINT RHipJoint
	{
		OFFSET 0.000000 0.000000 0.000000
		CHANNELS 3 Zrotation Yrotation Xrotation
		JOINT RightUpLeg
		{
			OFFSET -1.800000 -1.400000 0.085000
			CHANNELS 3 Zrotation Yrotation Xrotation
			JOINT RightLeg
			{
				OFFSET -2.215000 -6.000000 0.000000
				CHANNELS 3 Zrotation Yrotation Xrotation
				JOINT RightFoot
				{
					OFFSET -2.500000 -6.900000 0.000000
					CHANNELS 3 Zrotation Yrotation Xrotation
					JOINT RightToeBase
					{
						OFFSET -0.200000 -0.500000 1.950000
						CHANNELS 3 Zrotation Yrotation Xrotation
						End Site
						{
							OFFSET 0.000000 0.000000 0.000000
						}
					}
				}
			}
		}
	}
	JOINT LowerBack
	{
		OFFSET 0.000000 0.000000 0.000000
		CHANNELS 3 Zrotation Yrotation Xrotation
		JOINT Spine
		{
			OFFSET -0.087000 1.940000 -0.288900
			CHANNELS 3 Zrotation Yrotation Xrotation
			JOINT Spine1
			{
				OFFSET 0.000000 1.950000 0.060000
				CHANNELS 3 Zrotation Yrotation Xrotation
				JOINT Neck
				{
					OFFSET 0.000000 0.000000 0.000000
					CHANNELS 3 Zrotation Yrotation Xrotation
					JOINT Neck1
					{
						OFFSET 0.000000 1.600000 0.340000
						CHANNELS 3 Zrotation Yrotation Xrotation
						JOINT Head
						{
							OFFSET 0.000000 1.667000 -0.240000
							CHANNELS 3 Zrotation Yrotation Xrotation
							End Site
							{
								OFFSET 0.000000 0.000000 0.000000
							}
						}
					}
				}
				JOINT LeftShoulder
				{
					OFFSET 0.000000 0.000000 0.000000
					CHANNELS 3 Zrotation Yrotation Xrotation
					JOINT LeftArm
					{
						OFFSET 2.700000 1.550000 -0.730000
						CHANNELS 3 Zrotation Yrotation Xrotation
						JOINT LeftForeArm
						{
							OFFSET 5.450000 0.000000 0.000000
							CHANNELS 3 Zrotation Yrotation Xrotation
							JOINT LeftHand
							{
								OFFSET 3.450000 0.000000 0.000000
								CHANNELS 3 Zrotation Yrotation Xrotation
								JOINT LeftHandIndex1
								{
									OFFSET 0.750000 0.000000 0.000000
									CHANNELS 3 Zrotation Yrotation Xrotation
									End Site
									{
										OFFSET 0.000000 0.000000 0.000000
									}
								}
							}
						}
					}
				}
				JOINT RightShoulder
				{
					OFFSET 0.000000 0.000000 0.000000
					CHANNELS 3 Zrotation Yrotation Xrotation
					JOINT RightArm
					{
						OFFSET -2.700000 1.550000 -0.730000
						CHANNELS 3 Zrotation Yrotation Xrotation
						JOINT RightForeArm
						{
							OFFSET -5.450000 0.000000 0.000000
							CHANNELS 3 Zrotation Yrotation Xrotation
							JOINT RightHand
							{
								OFFSET -3.450000 0.000000 0.000000
								CHANNELS 3 Zrotation Yrotation Xrotation
								JOINT RightHandIndex1
								{
									OFFSET -0.750000 0.000000 0.000000
									CHANNELS 3 Zrotation Yrotation Xrotation
									End Site
									{
										OFFSET 0.000000 0.000000 0.000000
									}
								}
							}
						}
					}
				}
			}
		}
	}
}
MOTION
Frames: 6
Frame Time: 0.016667
-4.838550 17.394460 -0.661730 -9.233110 -49.560248 -9.088048 -14.841240 13.432390 3.627591 3.344723 -2.913618 -22.475736 -8.882723 5.745761 14.490983 -0.334758 3.276425 3.223709 0.558260 0.407750 0.703150 18.337056 -11.786378 2.288722 -7.246748 2.846476 -0.342919 -3.345966 -8.289975 53.844957 -1.552957 -8.396016 1.381291 0.097020 -0.213210 0.328760 -4.290199 -1.386254 -7.149539 15.737250 0.764936 20.372820 -4.931158 3.125917 16.344532 2.292498 -4.429498 -12.838826 -14.718884 17.407348 53.356818 -7.619940 17.930370 -13.346480 -11.795222 -0.470633 4.051191 -0.878326 18.417418 -0.160311 5.155090 1.278024 -0.564324 -3.596468 2.936663 0.585570 -0.140340 0.496680 0.096000 6.663498 2.815436 8.310332 14.752103 -17.913634 -3.495832 -12.820474 0.091529 0.390767 2.896186 -1.167744 0.053720 -0.024820 -0.279840 -0.166190 
-4.708180 17.477370 -0.833570 -10.794129 -52.107455 -7.535287 -14.891611 13.791579 3.578126 4.206517 -2.405657 -22.557625 -6.705077 5.153533 13.415717 -0.282867 3.007930 3.314376 0.480030 0.307050 0.645040 18.253151 -11.560048 2.391726 -6.123337 3.568694 -3.585229 -3.969104 -7.732027 55.635575 -1.539356 -8.409632 1.373288 -0.007200 -0.215390 0.340830 -3.842004 -2.219211 -7.343468 14.632752 0.215742 24.825424 -3.343848 2.931841 13.724172 2.501264 -4.833421 -13.706809 -15.775726 18.651561 51.754813 -7.247740 19.207900 -11.638710 -11.512704 -1.789496 4.919054 -3.566406 18.502059 -0.824708 5.295874 -1.546622 -0.447343 -3.536433 3.015658 0.579920 -0.157310 0.489240 0.075330 6.169654 5.081725 8.572739 20.724685 -14.904738 -5.344419 -13.705933 4.354185 -0.007443 2.865757 -1.185522 0.082430 -0.087330 -0.249060 -0.151320 
-4.598450 17.533160 -1.011940 -11.346478 -55.383024 -5.811204 -14.969994 13.873112 3.536179 4.878495 -2.321132 -24.132292 -5.556579 5.390428 15.802799 -0.272093 3.132051 3.238081 0.470180 0.297160 0.643380 18.191318 -11.380830 2.488591 -5.671343 4.717638 -7.858958 -4.484955 -7.199945 57.596626 -1.534963 -8.520094 1.308892 -0.012690 -0.219150 0.363160 -3.605560 -2.497709 -7.420453 12.716095 1.033263 25.239680 -1.121654 3.134477 13.669497 2.072639 -4.175672 -13.644712 -14.041058 18.783450 53.008133 -7.855870 20.867940 -10.310660 -11.046187 -2.936041 5.432661 -4.556668 15.133534 -0.666495 5.425479 0.519562 -0.399566 -3.589857 3.034015 0.563170 -0.131390 0.487150 0.074720 6.606631 6.216148 8.081848 23.858868 -8.797643 -4.738109 -10.260900 2.074055 0.140187 2.909532 -1.168320 0.087840 -0.130870 -0.253050 -0.158590 
-4.495030 17.569580 -1.179010 -11.420523 -57.507000 -4.587529 -15.085530 13.872689 3.643494 5.918522 -2.578204 -26.275514 -6.768145 6.815555 20.766629 -0.146124 3.890105 2.901561 0.417310 0.230570 0.646790 18.122114 -11.089635 2.528341 -5.212159 5.384978 -11.126316 -4.914587 -6.764318 58.345576 -1.496872 -8.493346 1.278325 -0.072430 -0.250340 0.406890 -3.172240 -2.933951 -7.595548 10.233639 2.467622 25.782061 1.844865 3.746852 13.730087 1.830789 -3.001699 -13.578329 -11.511737 17.679184 54.869813 -10.148170 22.364300 -9.676040 -11.257186 -4.871639 5.639119 -2.763632 11.129986 -0.347169 5.514346 -0.558522 -0.348824 -3.618503 3.083543 0.538770 -0.109630 0.490980 0.022330 7.348874 7.876410 8.162309 26.972004 -5.966005 -4.612672 -8.624509 1.635243 0.213514 2.932177 -1.168272 0.120060 -0.209330 -0.220820 -0.176660 
-4.379550 17.575880 -1.334810 -11.064800 -59.104950 -4.623677 -15.252864 13.781101 3.942680 7.189032 -3.404653 -29.171162 -8.418359 9.586825 29.884985 0.085319 5.625433 2.244783 0.416030 0.216520 0.691590 18.052231 -10.659301 2.433638 -5.014814 5.689012 -13.263165 -5.553503 -6.442636 59.241780 -1.520116 -8.508357 1.249309 -0.084650 -0.293650 0.422360 -2.584849 -3.596699 -7.840630 7.056796 3.774788 27.735578 5.113866 4.199897 13.758904 1.503928 -2.408263 -13.347975 -10.378533 16.566048 55.362553 -13.020040 22.775650 -12.316120 -11.233082 -6.423075 5.542340 -0.879067 6.060653 -0.061373 4.935347 0.547928 -0.378380 -3.634416 3.037312 0.578470 -0.126580 0.529320 0.001260 8.038995 9.730725 8.369426 27.970847 -2.745053 -3.663966 -4.897574 0.374184 0.346592 2.949342 -1.109536 0.115260 -0.214990 -0.221690 -0.205460 
-4.263700 17.552260 -1.456280 -10.770830 -60.493681 -4.168869 -15.425453 13.447508 4.433734 8.099152 -4.997850 -32.482740 -9.860705 12.995861 40.073757 0.452748 7.852915 1.468910 0.395760 0.180740 0.720400 18.013016 -10.226730 2.280906 -4.674808 5.761146 -15.500877 -6.746647 -5.775272 59.573119 -1.498723 -8.427031 1.268453 -0.099770 -0.320410 0.410980 -2.207781 -3.972139 -8.137908 5.310336 4.694645 28.567426 7.574066 4.501439 13.272570 1.231311 -1.746166 -13.077154 -9.308054 15.642035 57.273483 -15.234780 23.322200 -13.331500 -12.539353 -8.131033 5.080360 2.371212 2.176588 -0.141524 4.659816 -0.747417 -0.382278 -3.637658 2.987829 0.607990 -0.130060 0.536580 -0.027740 9.965210 11.399795 8.727507 28.543964 -1.203614 -3.130525 -3.540047 -0.245997 0.418791 2.942529 -1.075856 0.091050 -0.208750 -0.209020 -0.241870 
